<svg width="24" height="25" viewBox="0 0 24 25" fill="none" xmlns="http://www.w3.org/2000/svg">
<g id="ic:round-plus">
<path id="Vector" d="M18 13.4609H13V18.4609C13 18.7262 12.8946 18.9805 12.7071 19.168C12.5196 19.3556 12.2652 19.4609 12 19.4609C11.7348 19.4609 11.4804 19.3556 11.2929 19.168C11.1054 18.9805 11 18.7262 11 18.4609V13.4609H6C5.73478 13.4609 5.48043 13.3556 5.29289 13.168C5.10536 12.9805 5 12.7262 5 12.4609C5 12.1957 5.10536 11.9414 5.29289 11.7538C5.48043 11.5663 5.73478 11.4609 6 11.4609H11V6.46094C11 6.19572 11.1054 5.94137 11.2929 5.75383C11.4804 5.56629 11.7348 5.46094 12 5.46094C12.2652 5.46094 12.5196 5.56629 12.7071 5.75383C12.8946 5.94137 13 6.19572 13 6.46094V11.4609H18C18.2652 11.4609 18.5196 11.5663 18.7071 11.7538C18.8946 11.9414 19 12.1957 19 12.4609C19 12.7262 18.8946 12.9805 18.7071 13.168C18.5196 13.3556 18.2652 13.4609 18 13.4609Z" fill="#979797"/>
</g>
</svg>
