<svg width="35" height="34" viewBox="0 0 35 34" fill="none" xmlns="http://www.w3.org/2000/svg">
<g filter="url(#filter0_i_40000105_1291)">
<path d="M32.3821 9.40018C32.8057 10.2215 33.1639 11.0821 33.4497 11.975L32.1997 12.3752C32.6785 13.8709 32.9375 15.4664 32.9375 17.125C32.9375 18.7836 32.6785 20.3791 32.1997 21.8748L33.4497 22.275C33.1639 23.1679 32.8057 24.0285 32.3821 24.8498L31.2156 24.2482C29.7315 27.1255 27.3755 29.4815 24.4982 30.9656L25.0998 32.1321C24.2785 32.5557 23.4179 32.9139 22.525 33.1997L22.1248 31.9497C20.6291 32.4285 19.0336 32.6875 17.375 32.6875C15.7164 32.6875 14.1209 32.4285 12.6252 31.9497L12.225 33.1997C11.3321 32.9139 10.4715 32.5557 9.65018 32.1321L10.2518 30.9656C7.37447 29.4815 5.01852 27.1255 3.53441 24.2482L2.36794 24.8498C1.94431 24.0285 1.58613 23.1679 1.30028 22.275L2.5503 21.8748C2.0715 20.3791 1.8125 18.7836 1.8125 17.125C1.8125 15.4664 2.0715 13.8709 2.5503 12.3752L1.30028 11.975C1.58613 11.0821 1.94431 10.2215 2.36794 9.40018L3.53441 10.0018C5.01852 7.12447 7.37447 4.76852 10.2518 3.28441L9.65018 2.11794C10.4715 1.69431 11.3321 1.33613 12.225 1.05028L12.6252 2.3003C14.1209 1.8215 15.7164 1.5625 17.375 1.5625C19.0336 1.5625 20.6291 1.8215 22.1248 2.3003L22.525 1.05028C23.4179 1.33613 24.2785 1.69431 25.0998 2.11794L24.4982 3.28441C27.3755 4.76852 29.7315 7.12447 31.2156 10.0018L32.3821 9.40018Z" stroke="white" stroke-width="2.625" stroke-dasharray="11.25 3"/>
</g>
<path d="M23.4821 18.1429H18.3929V23.2321C18.3929 23.5021 18.2856 23.761 18.0947 23.9519C17.9038 24.1428 17.645 24.25 17.375 24.25C17.105 24.25 16.8462 24.1428 16.6553 23.9519C16.4644 23.761 16.3571 23.5021 16.3571 23.2321V18.1429H11.2679C10.9979 18.1429 10.739 18.0356 10.5481 17.8447C10.3572 17.6538 10.25 17.395 10.25 17.125C10.25 16.855 10.3572 16.5962 10.5481 16.4053C10.739 16.2144 10.9979 16.1071 11.2679 16.1071H16.3571V11.0179C16.3571 10.7479 16.4644 10.489 16.6553 10.2981C16.8462 10.1072 17.105 10 17.375 10C17.645 10 17.9038 10.1072 18.0947 10.2981C18.2856 10.489 18.3929 10.7479 18.3929 11.0179V16.1071H23.4821C23.7521 16.1071 24.011 16.2144 24.2019 16.4053C24.3928 16.5962 24.5 16.855 24.5 17.125C24.5 17.395 24.3928 17.6538 24.2019 17.8447C24.011 18.0356 23.7521 18.1429 23.4821 18.1429Z" fill="#EAEAEA"/>
<defs>
<filter id="filter0_i_40000105_1291" x="0.5" y="0.25" width="33.75" height="36.75" filterUnits="userSpaceOnUse" color-interpolation-filters="sRGB">
<feFlood flood-opacity="0" result="BackgroundImageFix"/>
<feBlend mode="normal" in="SourceGraphic" in2="BackgroundImageFix" result="shape"/>
<feColorMatrix in="SourceAlpha" type="matrix" values="0 0 0 0 0 0 0 0 0 0 0 0 0 0 0 0 0 0 127 0" result="hardAlpha"/>
<feOffset dy="3"/>
<feGaussianBlur stdDeviation="1.5"/>
<feComposite in2="hardAlpha" operator="arithmetic" k2="-1" k3="1"/>
<feColorMatrix type="matrix" values="0 0 0 0 0 0 0 0 0 0 0 0 0 0 0 0 0 0 0.25 0"/>
<feBlend mode="normal" in2="shape" result="effect1_innerShadow_40000105_1291"/>
</filter>
</defs>
</svg>
