<svg width="45" height="45" viewBox="0 0 45 45" fill="none" xmlns="http://www.w3.org/2000/svg">
<g filter="url(#filter0_i_40000105_1291)">
<path d="M42.5094 12.2002C43.0743 13.2953 43.5518 14.4428 43.933 15.6334L42.2663 16.1669C42.9047 18.1612 43.25 20.2886 43.25 22.5C43.25 24.7114 42.9047 26.8388 42.2663 28.8331L43.933 29.3666C43.5518 30.5572 43.0743 31.7047 42.5094 32.7998L40.9541 31.9976C38.9753 35.834 35.834 38.9753 31.9976 40.9541L32.7998 42.5094C31.7047 43.0743 30.5572 43.5518 29.3666 43.933L28.8331 42.2663C26.8388 42.9047 24.7114 43.25 22.5 43.25C20.2886 43.25 18.1612 42.9047 16.1669 42.2663L15.6334 43.933C14.4428 43.5518 13.2953 43.0743 12.2002 42.5094L13.0024 40.9541C9.16596 38.9753 6.02469 35.834 4.04588 31.9976L2.49058 32.7998C1.92575 31.7047 1.44817 30.5572 1.06704 29.3666L2.73373 28.8331C2.09533 26.8388 1.75 24.7114 1.75 22.5C1.75 20.2886 2.09533 18.1612 2.73373 16.1669L1.06704 15.6334C1.44817 14.4428 1.92574 13.2953 2.49058 12.2002L4.04588 13.0024C6.02469 9.16596 9.16596 6.02469 13.0024 4.04588L12.2002 2.49058C13.2953 1.92575 14.4428 1.44817 15.6334 1.06704L16.1669 2.73373C18.1612 2.09533 20.2886 1.75 22.5 1.75C24.7114 1.75 26.8388 2.09533 28.8331 2.73373L29.3666 1.06704C30.5572 1.44817 31.7047 1.92574 32.7998 2.49058L31.9976 4.04588C35.834 6.02469 38.9753 9.16596 40.9541 13.0024L42.5094 12.2002Z" stroke="white" stroke-width="3.5" stroke-dasharray="15 4"/>
</g>
<path d="M30.6429 23.8571H23.8571V30.6429C23.8571 31.0028 23.7142 31.348 23.4596 31.6025C23.2051 31.857 22.8599 32 22.5 32C22.1401 32 21.7949 31.857 21.5404 31.6025C21.2858 31.348 21.1429 31.0028 21.1429 30.6429V23.8571H14.3571C13.9972 23.8571 13.652 23.7142 13.3975 23.4596C13.143 23.2051 13 22.8599 13 22.5C13 22.1401 13.143 21.7949 13.3975 21.5404C13.652 21.2858 13.9972 21.1429 14.3571 21.1429H21.1429V14.3571C21.1429 13.9972 21.2858 13.652 21.5404 13.3975C21.7949 13.143 22.1401 13 22.5 13C22.8599 13 23.2051 13.143 23.4596 13.3975C23.7142 13.652 23.8571 13.9972 23.8571 14.3571V21.1429H30.6429C31.0028 21.1429 31.348 21.2858 31.6025 21.5404C31.857 21.7949 32 22.1401 32 22.5C32 22.8599 31.857 23.2051 31.6025 23.4596C31.348 23.7142 31.0028 23.8571 30.6429 23.8571Z" fill="#EAEAEA"/>
<defs>
<filter id="filter0_i_40000105_1291" x="0" y="0" width="45" height="49" filterUnits="userSpaceOnUse" color-interpolation-filters="sRGB">
<feFlood flood-opacity="0" result="BackgroundImageFix"/>
<feBlend mode="normal" in="SourceGraphic" in2="BackgroundImageFix" result="shape"/>
<feColorMatrix in="SourceAlpha" type="matrix" values="0 0 0 0 0 0 0 0 0 0 0 0 0 0 0 0 0 0 127 0" result="hardAlpha"/>
<feOffset dy="4"/>
<feGaussianBlur stdDeviation="2"/>
<feComposite in2="hardAlpha" operator="arithmetic" k2="-1" k3="1"/>
<feColorMatrix type="matrix" values="0 0 0 0 0 0 0 0 0 0 0 0 0 0 0 0 0 0 0.25 0"/>
<feBlend mode="normal" in2="shape" result="effect1_innerShadow_40000105_1291"/>
</filter>
</defs>
</svg>
