<svg width="204" height="204" viewBox="0 0 204 204" fill="none" xmlns="http://www.w3.org/2000/svg">
<g id="bi:image-fill" clip-path="url(#clip0_13340_46372)">
<path id="Vector" d="M0.773438 38.6094C0.773437 31.8712 3.45016 25.409 8.21476 20.6444C12.9794 15.8798 19.4415 13.2031 26.1797 13.2031H178.617C185.355 13.2031 191.818 15.8798 196.582 20.6444C201.347 25.409 204.023 31.8712 204.023 38.6094V165.641C204.023 172.379 201.347 178.841 196.582 183.606C191.818 188.37 185.355 191.047 178.617 191.047H26.1797C19.4415 191.047 12.9794 188.37 8.21476 183.606C3.45016 178.841 0.773438 172.379 0.773438 165.641V38.6094ZM13.4766 152.938V165.641C13.4766 169.01 14.8149 172.241 17.1972 174.623C19.5795 177.005 22.8106 178.344 26.1797 178.344H178.617C181.986 178.344 185.217 177.005 187.6 174.623C189.982 172.241 191.32 169.01 191.32 165.641V121.18L143.341 96.4467C142.149 95.85 140.801 95.6429 139.485 95.855C138.17 96.067 136.954 96.6873 136.011 97.6281L88.8823 144.757L55.092 122.247C53.872 121.434 52.4086 121.069 50.95 121.213C49.4914 121.356 48.1273 122 47.089 123.034L13.4766 152.938ZM76.9922 70.3672C76.9922 65.3136 74.9846 60.4669 71.4112 56.8935C67.8378 53.32 62.9911 51.3125 57.9375 51.3125C52.8839 51.3125 48.0372 53.32 44.4638 56.8935C40.8904 60.4669 38.8828 65.3136 38.8828 70.3672C38.8828 75.4208 40.8904 80.2674 44.4638 83.8409C48.0372 87.4143 52.8839 89.4219 57.9375 89.4219C62.9911 89.4219 67.8378 87.4143 71.4112 83.8409C74.9846 80.2674 76.9922 75.4208 76.9922 70.3672Z" fill="#B3CADF" fill-opacity="0.8"/>
</g>
<defs>
<clipPath id="clip0_13340_46372">
<rect width="203.25" height="203.25" fill="white" transform="translate(0.75 0.5)"/>
</clipPath>
</defs>
</svg>
