<svg width="16" height="16" viewBox="0 0 16 16" fill="none" xmlns="http://www.w3.org/2000/svg">
<g id="Group">
<path id="Vector" d="M1 10.7938C1 8.81415 1 7.82365 1.6153 7.20905C2.2299 6.59375 3.2204 6.59375 5.2 6.59375H10.8C12.7796 6.59375 13.7701 6.59375 14.3847 7.20905C15 7.82365 15 8.81415 15 10.7938C15 12.7734 15 13.7639 14.3847 14.3785C13.7701 14.9938 12.7796 14.9938 10.8 14.9938H5.2C3.2204 14.9938 2.2299 14.9938 1.6153 14.3785C1 13.7639 1 12.7734 1 10.7938Z" stroke="#222222" stroke-width="1.5"/>
<path id="Vector_2" d="M3.80078 6.6V5.2C3.80078 4.08609 4.24328 3.0178 5.03093 2.23015C5.81859 1.4425 6.88687 1 8.00078 1C9.11469 1 10.183 1.4425 10.9706 2.23015C11.7583 3.0178 12.2008 4.08609 12.2008 5.2V6.6" stroke="#222222" stroke-width="1.5" stroke-linecap="round"/>
</g>
</svg>
