<svg width="13" height="13" viewBox="0 0 13 13" fill="none" xmlns="http://www.w3.org/2000/svg">
<path d="M7.59925 11.8213L7.90413 11.3061L7.1785 10.8763L6.87306 11.3916L7.59925 11.8213ZM5.34588 11.3061L5.65075 11.8213L6.37638 11.3916L6.07206 10.8763L5.34588 11.3061ZM6.87306 11.3916C6.84677 11.4336 6.81021 11.4683 6.76681 11.4924C6.72342 11.5164 6.67462 11.5291 6.625 11.5291C6.57538 11.5291 6.52658 11.5164 6.48319 11.4924C6.43979 11.4683 6.40323 11.4336 6.37694 11.3916L5.65075 11.8213C6.08556 12.5565 7.16388 12.5565 7.59925 11.8213L6.87363 11.3916H6.87306ZM5.78125 1.12256H7.46875V0.278809H5.78125V1.12256ZM11.8281 5.48193V6.04443H12.6719V5.48193H11.8281ZM1.42188 6.04443V5.48193H0.578125V6.04443H1.42188ZM0.578125 6.04443C0.578125 6.69412 0.578125 7.20206 0.60625 7.61212C0.634375 8.02556 0.692312 8.36981 0.8245 8.68818L1.60413 8.36531C1.52144 8.16731 1.47306 7.92543 1.44775 7.55475C1.42188 7.18012 1.42188 6.70537 1.42188 6.04443H0.578125ZM4.26419 9.83681C3.55769 9.82443 3.18756 9.77943 2.89731 9.65906L2.575 10.4387C3.02781 10.6266 3.54306 10.6687 4.24956 10.6811L4.26419 9.83681ZM0.8245 8.68818C0.987043 9.08062 1.22529 9.43719 1.52564 9.73754C1.826 10.0379 2.18257 10.2761 2.575 10.4387L2.89731 9.65906C2.31157 9.41643 1.84676 8.95105 1.60413 8.36531L0.8245 8.68818ZM11.8281 6.04443C11.8281 6.70537 11.8281 7.18012 11.8023 7.55475C11.7769 7.92543 11.7286 8.16731 11.6464 8.36531L12.4255 8.68818C12.5577 8.36981 12.6156 8.02556 12.6443 7.61212C12.6724 7.20206 12.6719 6.69412 12.6719 6.04443H11.8281ZM9.00044 10.68C9.70694 10.6682 10.2222 10.6266 10.675 10.4387L10.3521 9.65906C10.0624 9.77943 9.69231 9.82443 8.98638 9.83681L9.00044 10.6806V10.68ZM11.6464 8.36531C11.4038 8.95105 10.9384 9.41643 10.3527 9.65906L10.675 10.4387C11.0674 10.2761 11.424 10.0379 11.7244 9.73754C12.0247 9.43719 12.263 9.08062 12.4255 8.68818L11.6464 8.36531ZM7.46875 1.12256C8.39744 1.12256 9.06456 1.12256 9.58488 1.17262C10.099 1.22156 10.4258 1.31493 10.6868 1.47468L11.1273 0.755246C10.7116 0.500996 10.2402 0.387371 9.66475 0.332246C9.0955 0.278246 8.38113 0.278809 7.46875 0.278809V1.12256ZM12.6719 5.48193C12.6719 4.56956 12.6719 3.85575 12.6179 3.28593C12.5633 2.7105 12.4497 2.23856 12.1954 1.82343L11.4754 2.26387C11.6358 2.52487 11.7291 2.85168 11.7781 3.36637C11.8276 3.88612 11.8281 4.55325 11.8281 5.48193H12.6719ZM10.6863 1.47468C11.0081 1.67173 11.2787 1.94216 11.476 2.26387L12.1954 1.82343C11.9287 1.38805 11.5626 1.022 11.1273 0.755246L10.6868 1.47525L10.6863 1.47468ZM5.78125 0.278809C4.86888 0.278809 4.15506 0.278809 3.58525 0.332246C3.00981 0.387371 2.53788 0.500996 2.12275 0.755246L2.56319 1.47525C2.82419 1.31493 3.151 1.22156 3.66569 1.17262C4.18544 1.12312 4.85256 1.12256 5.78125 1.12256V0.278809ZM1.42188 5.48193C1.42188 4.55325 1.42188 3.88612 1.47194 3.36581C1.52088 2.85168 1.61425 2.52487 1.774 2.26387L1.05456 1.824C0.800312 2.23912 0.686688 2.7105 0.631563 3.28593C0.578125 3.85631 0.578125 4.56956 0.578125 5.48193H1.42188ZM2.12275 0.755246C1.68736 1.022 1.32132 1.38861 1.05456 1.824L1.77456 2.26387C1.97151 1.94229 2.24175 1.67187 2.56319 1.47468L2.12275 0.755246ZM6.0715 10.8763C5.95788 10.6834 5.85775 10.5129 5.75988 10.3791C5.6592 10.2323 5.52843 10.1086 5.37625 10.0162L4.95213 10.7458C4.97856 10.7616 5.01513 10.7897 5.07813 10.8763C5.14619 10.9697 5.22325 11.0991 5.34588 11.3061L6.0715 10.8763ZM4.24956 10.68C4.49706 10.6845 4.65288 10.6879 4.77213 10.7008C4.8835 10.7132 4.92681 10.7312 4.95213 10.7458L5.37625 10.0162C5.21876 9.92899 5.04442 9.87644 4.86494 9.86212C4.69731 9.84356 4.49594 9.84075 4.26419 9.83681L4.24956 10.6811V10.68ZM7.90413 11.3061C8.02675 11.0996 8.10381 10.9697 8.17188 10.8763C8.23488 10.7897 8.27144 10.7616 8.29788 10.7458L7.87375 10.0162C7.71063 10.1119 7.5925 10.2384 7.49013 10.3791C7.39281 10.5129 7.29213 10.6828 7.17794 10.8763L7.90413 11.3061ZM8.98638 9.83681C8.75463 9.84075 8.55269 9.84356 8.38506 9.86212C8.21013 9.88181 8.03856 9.92062 7.87375 10.0162L8.29788 10.7458C8.32319 10.7312 8.3665 10.7132 8.47788 10.7008C8.59713 10.6879 8.7535 10.6839 9.001 10.68L8.98638 9.83625V9.83681Z" fill="#4A17CB"/>
<path d="M4.375 5.76318H4.38006M6.61994 5.76318H6.625M8.86994 5.76318H8.875" stroke="#4A17CB" stroke-width="1.5" stroke-linecap="round" stroke-linejoin="round"/>
</svg>
