<svg width="24" height="25" viewBox="0 0 24 25" fill="none" xmlns="http://www.w3.org/2000/svg">
<path fill-rule="evenodd" clip-rule="evenodd" d="M4.47961 2.0625H4.39961C4.03321 2.0625 3.71801 2.0625 3.43961 2.1281C3.00863 2.23108 2.61457 2.45137 2.3011 2.76456C1.98763 3.07775 1.76698 3.47161 1.66361 3.9025C1.59961 4.1809 1.59961 4.4945 1.59961 4.8625V8.8625C1.59961 9.2289 1.59961 9.5441 1.66521 9.8225C1.76819 10.2535 1.98848 10.6475 2.30167 10.961C2.61486 11.2745 3.00872 11.4951 3.43961 11.5985C3.71801 11.6625 4.03161 11.6625 4.39961 11.6625H8.39961C8.76601 11.6625 9.08121 11.6625 9.35961 11.5969C9.79059 11.4939 10.1846 11.2736 10.4981 10.9604C10.8116 10.6472 11.0322 10.2534 11.1356 9.8225C11.1996 9.5441 11.1996 9.2305 11.1996 8.8625V4.8625C11.1996 4.4961 11.1996 4.1809 11.134 3.9025C11.031 3.47152 10.8107 3.07746 10.4975 2.76399C10.1844 2.45052 9.7905 2.22987 9.35961 2.1265C9.08121 2.0625 8.76761 2.0625 8.39961 2.0625H4.47961ZM3.81241 3.6849C3.88121 3.6689 3.98841 3.6625 4.47961 3.6625H8.31961C8.81241 3.6625 8.91801 3.6673 8.98681 3.6849C9.13054 3.71927 9.26194 3.79278 9.36643 3.89728C9.47093 4.00177 9.54444 4.13317 9.57881 4.2769C9.59481 4.3441 9.59961 4.4497 9.59961 4.9425V8.7825C9.59961 9.2753 9.59481 9.3809 9.57721 9.4497C9.54284 9.59343 9.46933 9.72483 9.36483 9.82932C9.26034 9.93382 9.12894 10.0073 8.98521 10.0417C8.91961 10.0561 8.81401 10.0625 8.31961 10.0625H4.47961C3.98681 10.0625 3.88121 10.0577 3.81241 10.0401C3.66868 10.0057 3.53728 9.93222 3.43279 9.82772C3.32829 9.72323 3.25478 9.59183 3.22041 9.4481C3.20601 9.3825 3.19961 9.2769 3.19961 8.7825V4.9425C3.19961 4.4497 3.20441 4.3441 3.22201 4.2753C3.25638 4.13157 3.32989 4.00017 3.43439 3.89568C3.53888 3.79118 3.67028 3.71767 3.81401 3.6833L3.81241 3.6849ZM15.6796 2.0625H15.5996C15.2332 2.0625 14.918 2.0625 14.6396 2.1281C14.2086 2.23108 13.8146 2.45137 13.5011 2.76456C13.1876 3.07775 12.967 3.47161 12.8636 3.9025C12.7996 4.1809 12.7996 4.4945 12.7996 4.8625V8.8625C12.7996 9.2289 12.7996 9.5441 12.8652 9.8225C12.9682 10.2535 13.1885 10.6475 13.5017 10.961C13.8149 11.2745 14.2087 11.4951 14.6396 11.5985C14.918 11.6625 15.2316 11.6625 15.5996 11.6625H19.5996C19.966 11.6625 20.2812 11.6625 20.5596 11.5969C20.9906 11.4939 21.3847 11.2736 21.6981 10.9604C22.0116 10.6472 22.2322 10.2534 22.3356 9.8225C22.3996 9.5441 22.3996 9.2305 22.3996 8.8625V4.8625C22.3996 4.4961 22.3996 4.1809 22.334 3.9025C22.231 3.47152 22.0107 3.07746 21.6975 2.76399C21.3844 2.45052 20.9905 2.22987 20.5596 2.1265C20.2812 2.0625 19.9676 2.0625 19.5996 2.0625H15.6796ZM15.0124 3.6849C15.0812 3.6689 15.1884 3.6625 15.6796 3.6625H19.5196C20.0124 3.6625 20.118 3.6673 20.1868 3.6849C20.3305 3.71927 20.4619 3.79278 20.5664 3.89728C20.6709 4.00177 20.7444 4.13317 20.7788 4.2769C20.7948 4.3441 20.7996 4.4497 20.7996 4.9425V8.7825C20.7996 9.2753 20.7932 9.3809 20.7772 9.4497C20.7428 9.59343 20.6693 9.72483 20.5648 9.82932C20.4603 9.93382 20.3289 10.0073 20.1852 10.0417C20.118 10.0577 20.0124 10.0625 19.5196 10.0625H15.6796C15.1868 10.0625 15.0812 10.0577 15.0124 10.0401C14.8687 10.0057 14.7373 9.93222 14.6328 9.82772C14.5283 9.72323 14.4548 9.59183 14.4204 9.4481C14.406 9.3825 14.3996 9.2769 14.3996 8.7825V4.9425C14.3996 4.4497 14.4044 4.3441 14.422 4.2753C14.4564 4.13157 14.5299 4.00017 14.6344 3.89568C14.7389 3.79118 14.8703 3.71767 15.014 3.6833L15.0124 3.6849ZM4.39961 13.2625H8.39961C8.76601 13.2625 9.08121 13.2625 9.35961 13.3281C9.79059 13.4311 10.1846 13.6514 10.4981 13.9646C10.8116 14.2778 11.0322 14.6716 11.1356 15.1025C11.1996 15.3809 11.1996 15.6945 11.1996 16.0625V20.0625C11.1996 20.4289 11.1996 20.7441 11.134 21.0225C11.031 21.4535 10.8107 21.8475 10.4975 22.161C10.1844 22.4745 9.7905 22.6951 9.35961 22.7985C9.08121 22.8625 8.76761 22.8625 8.39961 22.8625H4.39961C4.03321 22.8625 3.71801 22.8625 3.43961 22.7969C3.00863 22.6939 2.61457 22.4736 2.3011 22.1604C1.98763 21.8472 1.76698 21.4534 1.66361 21.0225C1.59961 20.7441 1.59961 20.4305 1.59961 20.0625V16.0625C1.59961 15.6961 1.59961 15.3809 1.66521 15.1025C1.76819 14.6715 1.98848 14.2775 2.30167 13.964C2.61486 13.6505 3.00872 13.4299 3.43961 13.3265C3.71801 13.2625 4.03161 13.2625 4.39961 13.2625ZM4.47961 14.8625C3.98681 14.8625 3.88121 14.8673 3.81241 14.8849C3.66868 14.9193 3.53728 14.9928 3.43279 15.0973C3.32829 15.2018 3.25478 15.3332 3.22041 15.4769C3.20601 15.5425 3.19961 15.6481 3.19961 16.1425V19.9825C3.19961 20.4753 3.20441 20.5809 3.22201 20.6497C3.25638 20.7934 3.32989 20.9248 3.43439 21.0293C3.53888 21.1338 3.67028 21.2073 3.81401 21.2417C3.88121 21.2577 3.98681 21.2625 4.47961 21.2625H8.31961C8.81241 21.2625 8.91801 21.2561 8.98681 21.2401C9.13054 21.2057 9.26194 21.1322 9.36643 21.0277C9.47093 20.9232 9.54444 20.7918 9.57881 20.6481C9.59481 20.5809 9.59961 20.4753 9.59961 19.9825V16.1425C9.59961 15.6497 9.59481 15.5441 9.57721 15.4753C9.54284 15.3316 9.46933 15.2002 9.36483 15.0957C9.26034 14.9912 9.12894 14.9177 8.98521 14.8833C8.91961 14.8689 8.81401 14.8625 8.31961 14.8625H4.47961ZM15.6796 13.2625H15.5996C15.2332 13.2625 14.918 13.2625 14.6396 13.3281C14.2086 13.4311 13.8146 13.6514 13.5011 13.9646C13.1876 14.2778 12.967 14.6716 12.8636 15.1025C12.7996 15.3809 12.7996 15.6945 12.7996 16.0625V20.0625C12.7996 20.4289 12.7996 20.7441 12.8652 21.0225C12.9682 21.4535 13.1885 21.8475 13.5017 22.161C13.8149 22.4745 14.2087 22.6951 14.6396 22.7985C14.918 22.8641 15.2332 22.8641 15.5996 22.8641H19.5996C19.966 22.8641 20.2812 22.8641 20.5596 22.7985C20.9903 22.6953 21.384 22.4748 21.6972 22.1617C22.0104 21.8485 22.2308 21.4548 22.334 21.0241C22.3996 20.7457 22.3996 20.4305 22.3996 20.0641V16.0625C22.3996 15.6961 22.3996 15.3809 22.334 15.1025C22.231 14.6715 22.0107 14.2775 21.6975 13.964C21.3844 13.6505 20.9905 13.4299 20.5596 13.3265C20.2812 13.2625 19.9676 13.2625 19.5996 13.2625H15.6796ZM15.0124 14.8849C15.0812 14.8689 15.1884 14.8625 15.6796 14.8625H19.5196C20.0124 14.8625 20.118 14.8673 20.1868 14.8849C20.3305 14.9193 20.4619 14.9928 20.5664 15.0973C20.6709 15.2018 20.7444 15.3332 20.7788 15.4769C20.7948 15.5441 20.7996 15.6497 20.7996 16.1425V19.9825C20.7996 20.4753 20.7932 20.5809 20.7772 20.6497C20.7428 20.7934 20.6693 20.9248 20.5648 21.0293C20.4603 21.1338 20.3289 21.2073 20.1852 21.2417C20.118 21.2577 20.0124 21.2625 19.5196 21.2625H15.6796C15.1868 21.2625 15.0812 21.2561 15.0124 21.2401C14.8687 21.2057 14.7373 21.1322 14.6328 21.0277C14.5283 20.9232 14.4548 20.7918 14.4204 20.6481C14.406 20.5825 14.3996 20.4769 14.3996 19.9825V16.1425C14.3996 15.6497 14.4044 15.5441 14.422 15.4753C14.4564 15.3316 14.5299 15.2002 14.6344 15.0957C14.7389 14.9912 14.8703 14.9177 15.014 14.8833L15.0124 14.8849Z" fill="#979797"/>
</svg>
