<svg width="20" height="24" viewBox="0 0 20 24" fill="none" xmlns="http://www.w3.org/2000/svg">
<path d="M17.725 19.9C17.725 20.8647 17.3418 21.7899 16.6596 22.4721C15.9774 23.1543 15.0522 23.5375 14.0875 23.5375H5.6C4.63528 23.5375 3.71006 23.1543 3.0279 22.4721C2.34574 21.7899 1.9625 20.8647 1.9625 19.9V5.35H0.75V1.7125H6.20625L7.41875 0.5H12.2688L13.4813 1.7125H18.9375V5.35H17.725V19.9ZM3.175 5.35V19.9C3.175 20.5431 3.43049 21.16 3.88527 21.6147C4.34004 22.0695 4.95685 22.325 5.6 22.325H14.0875C14.7307 22.325 15.3475 22.0695 15.8022 21.6147C16.257 21.16 16.5125 20.5431 16.5125 19.9V5.35H3.175ZM17.725 4.1375V2.925H12.875L11.6625 1.7125H8.025L6.8125 2.925H1.9625V4.1375H17.725ZM5.6 7.775H6.8125V19.9H5.6V7.775ZM12.875 7.775H14.0875V19.9H12.875V7.775Z" fill="#979797" stroke="#979797" stroke-width="0.15"/>
</svg>
