<svg width="14" height="14" viewBox="0 0 14 14" fill="none" xmlns="http://www.w3.org/2000/svg">
<g id="fxemoji:email" clip-path="url(#clip0_13340_45043)">
<path id="Vector" d="M13.8704 11.7063C13.9215 11.568 8.04542 7.13107 8.04542 7.13107C7.30978 6.58819 6.92287 6.57965 6.1954 7.13107C6.1954 7.13107 0.327854 11.5644 0.377239 11.7008L0.376053 11.7018C0.376659 11.703 0.377635 11.7038 0.378452 11.7049C0.428205 11.8405 0.500589 11.9667 0.592527 12.0782C0.631366 12.1253 0.678168 12.1647 0.723177 12.2057L0.720988 12.2074C0.724574 12.2106 0.729347 12.2121 0.732933 12.2152C0.923699 12.3854 1.16427 12.4956 1.43153 12.5271C1.43572 12.5276 1.4391 12.5298 1.44329 12.5303H1.45943C1.50006 12.5342 1.53869 12.5439 1.5803 12.5439H12.6735C13.2198 12.5439 13.6826 12.2004 13.8664 11.7189C13.8686 11.7153 13.872 11.7127 13.874 11.709L13.8704 11.7063Z" fill="#96A9B2"/>
<path id="Vector_2" d="M7.12851 6.62194L0.407066 11.663V4.5215C0.407066 3.82541 0.971245 3.26123 1.66734 3.26123H12.5897C13.2858 3.26123 13.85 3.82541 13.85 4.5215V11.663L7.12851 6.62194Z" fill="#B9C5C6"/>
<path id="Vector_3" d="M0.485443 4.08302L6.22413 8.59046C6.94844 9.12495 7.32939 9.13339 8.04565 8.59046L13.7753 4.09016C13.6759 3.90997 13.5271 3.76761 13.3569 3.6541L13.4357 3.59235C13.2434 3.41725 12.9975 3.30373 12.7246 3.27441L1.53288 3.27481C1.26072 3.30373 1.01445 3.41764 0.822495 3.59235L0.900726 3.65334C0.732504 3.76527 0.585058 3.90517 0.485443 4.08302Z" fill="#EDECE6"/>
<path id="Vector_4" d="M0.483575 4.09232C0.433187 4.2285 6.21876 8.59702 6.21876 8.59702C6.94306 9.13151 7.32401 9.13995 8.04028 8.59702C8.04028 8.59702 13.8174 4.23204 13.7688 4.09772L13.7699 4.09675C13.7694 4.09556 13.7684 4.0948 13.7676 4.09372C13.7186 3.96017 13.6473 3.8359 13.5568 3.72618C13.5186 3.6798 13.4725 3.64099 13.4282 3.6006L13.4304 3.59893C13.4268 3.5958 13.4221 3.59432 13.4186 3.59118C13.2308 3.42365 12.9939 3.31512 12.7308 3.28414C12.7267 3.28364 12.7233 3.2815 12.7192 3.281H12.7033C12.6633 3.27718 12.6253 3.26758 12.5843 3.26758H1.66198C1.12414 3.26758 0.668461 3.60582 0.487503 4.07992C0.485341 4.08346 0.482019 4.08602 0.480042 4.08963L0.483575 4.09232Z" fill="#DCE2E2"/>
<path id="Vector_5" d="M8.05843 4.5773H7.03981C6.99677 4.5773 6.95549 4.5944 6.92506 4.62483C6.89462 4.65527 6.87752 4.69655 6.87752 4.73959V5.31234C6.87752 5.35538 6.89462 5.39666 6.92506 5.42709C6.95549 5.45753 6.99677 5.47463 7.03981 5.47463H7.86814C7.91118 5.47463 7.95246 5.49172 7.98289 5.52216C8.01333 5.55259 8.03043 5.59387 8.03043 5.63692V5.9432C8.03043 5.98624 8.01333 6.02752 7.98289 6.05795C7.95246 6.08839 7.91118 6.10549 7.86814 6.10549H7.03981C6.99677 6.10549 6.95549 6.12259 6.92506 6.15302C6.89462 6.18346 6.87752 6.22474 6.87752 6.26778V6.88946C6.87752 6.9325 6.89462 6.97378 6.92506 7.00422C6.95549 7.03465 6.99677 7.05175 7.03981 7.05175H8.1292C8.17224 7.05175 8.21352 7.06885 8.24395 7.09929C8.27439 7.12972 8.29149 7.171 8.29149 7.21404V7.54208C8.29149 7.58512 8.27439 7.6264 8.24395 7.65683C8.21352 7.68727 8.17224 7.70437 8.1292 7.70437H6.13162C6.08858 7.70437 6.0473 7.68727 6.01686 7.65683C5.98643 7.6264 5.96933 7.58512 5.96933 7.54208V4.09784C5.96933 4.05479 5.98643 4.01352 6.01686 3.98308C6.0473 3.95265 6.08858 3.93555 6.13162 3.93555H8.10415C8.203 3.93555 8.27888 4.02314 8.26478 4.12099L8.21908 4.43813C8.21352 4.47677 8.19421 4.51211 8.1647 4.53767C8.1352 4.56323 8.09747 4.5773 8.05843 4.5773Z" fill="#597B91"/>
</g>
<defs>
<clipPath id="clip0_13340_45043">
<rect width="13.5" height="13.5" fill="white" transform="translate(0.375 0.5)"/>
</clipPath>
</defs>
</svg>
