<svg width="16" height="16" viewBox="0 0 16 16" fill="none" xmlns="http://www.w3.org/2000/svg">
<g id="eos-icons:admin">
<path id="Vector" d="M8 0.667969L2 3.33464V7.33464C2 11.0346 4.56 14.4946 8 15.3346C11.44 14.4946 14 11.0346 14 7.33464V3.33464L8 0.667969ZM8 3.26797C8.39556 3.26797 8.78224 3.38527 9.11114 3.60503C9.44004 3.82479 9.69638 4.13715 9.84776 4.5026C9.99913 4.86805 10.0387 5.27019 9.96157 5.65815C9.8844 6.04611 9.69392 6.40248 9.41421 6.68218C9.13451 6.96189 8.77814 7.15237 8.39018 7.22954C8.00222 7.30671 7.60009 7.2671 7.23463 7.11573C6.86918 6.96435 6.55682 6.70801 6.33706 6.37911C6.1173 6.05021 6 5.66353 6 5.26797C6 4.73754 6.21071 4.22883 6.58579 3.85376C6.96086 3.47868 7.46957 3.26797 8 3.26797ZM8 8.53464C9.33333 8.53464 12 9.2613 12 10.588C11.5622 11.248 10.9678 11.7895 10.2698 12.1641C9.57188 12.5386 8.7921 12.7347 8 12.7347C7.2079 12.7347 6.42812 12.5386 5.73018 12.1641C5.03224 11.7895 4.43785 11.248 4 10.588C4 9.2613 6.66667 8.53464 8 8.53464Z" fill="#954DE1"/>
</g>
</svg>
