<svg width="17" height="17" viewBox="0 0 17 17" fill="none" xmlns="http://www.w3.org/2000/svg">
<g id="fluent:info-32-regular">
<path id="Vector" d="M8.25 6.70312C8.38675 6.70312 8.5179 6.75745 8.6146 6.85415C8.7113 6.95085 8.76562 7.082 8.76562 7.21875V11.8594C8.76562 11.9961 8.7113 12.1273 8.6146 12.224C8.5179 12.3207 8.38675 12.375 8.25 12.375C8.11325 12.375 7.9821 12.3207 7.8854 12.224C7.7887 12.1273 7.73438 11.9961 7.73438 11.8594V7.21875C7.73438 7.082 7.7887 6.95085 7.8854 6.85415C7.9821 6.75745 8.11325 6.70312 8.25 6.70312ZM8.25 5.67188C8.45513 5.67188 8.65185 5.59039 8.7969 5.44534C8.94195 5.30029 9.02344 5.10357 9.02344 4.89844C9.02344 4.69331 8.94195 4.49658 8.7969 4.35153C8.65185 4.20649 8.45513 4.125 8.25 4.125C8.04487 4.125 7.84814 4.20649 7.7031 4.35153C7.55805 4.49658 7.47656 4.69331 7.47656 4.89844C7.47656 5.10357 7.55805 5.30029 7.7031 5.44534C7.84814 5.59039 8.04487 5.67188 8.25 5.67188ZM1.03125 8.25C1.03125 4.26319 4.26319 1.03125 8.25 1.03125C12.2368 1.03125 15.4688 4.26319 15.4688 8.25C15.4688 12.2368 12.2368 15.4688 8.25 15.4688C4.26319 15.4688 1.03125 12.2368 1.03125 8.25ZM8.25 2.0625C4.83295 2.0625 2.0625 4.83295 2.0625 8.25C2.0625 11.667 4.83295 14.4375 8.25 14.4375C11.667 14.4375 14.4375 11.667 14.4375 8.25C14.4375 4.83295 11.667 2.0625 8.25 2.0625Z" fill="#979797"/>
</g>
</svg>
