<svg width="18" height="18" viewBox="0 0 18 18" fill="none" xmlns="http://www.w3.org/2000/svg">
<g id="game-icons:sands-of-time">
<path id="Vector" d="M4.04698 0.773438V1.1019C4.04698 4.68619 5.38847 7.76922 7.43404 8.90986V9.1241C5.38844 10.2647 4.04695 13.3478 4.04695 16.9321V17.2606H14.1279V16.9321C14.1279 13.3267 12.7637 10.2428 10.6991 9.1208V8.91316C12.7636 7.79108 14.1279 4.70707 14.1279 1.10187V0.773438H4.04688H4.04698ZM4.71273 1.43033H13.4622C13.3752 4.82098 11.9596 7.60106 10.2301 8.42312L10.0422 8.51214V9.52291L10.2301 9.61186C11.9595 10.4339 13.375 13.2132 13.4622 16.6036H4.71273C4.79908 13.2322 6.19369 10.4485 7.90756 9.60968L8.09213 9.51961V8.51435L7.90756 8.42428C6.19376 7.58545 4.79904 4.80175 4.71273 1.43033ZM12.2241 4.45816C10.1988 5.43586 7.84621 5.43691 5.98166 4.60213C6.49684 6.39176 7.52207 7.66554 8.72828 7.87605C8.672 7.95037 8.64152 8.04102 8.64145 8.13424C8.64145 8.3719 8.83438 8.56491 9.07211 8.56491C9.30984 8.56491 9.50277 8.3719 9.50277 8.13424C9.50277 8.03862 9.47089 7.9508 9.41819 7.87936C10.6636 7.67264 11.7205 6.32999 12.2241 4.45816ZM9.07211 9.09338C8.83438 9.09338 8.64145 9.28631 8.64145 9.52404C8.64145 9.76177 8.83438 9.9547 9.07211 9.9547C9.30984 9.9547 9.50277 9.76177 9.50277 9.52404C9.50277 9.28631 9.30984 9.09338 9.07211 9.09338ZM9.07211 10.4743C8.83438 10.4743 8.64145 10.6673 8.64145 10.905C8.64145 11.1427 8.83438 11.3356 9.07211 11.3356C9.30984 11.3356 9.50277 11.1427 9.50277 10.905C9.50277 10.6673 9.30984 10.4743 9.07211 10.4743ZM9.07211 11.8641C8.83438 11.8641 8.64145 12.0571 8.64145 12.2948C8.64145 12.5325 8.83438 12.7255 9.07211 12.7255C9.30984 12.7255 9.50277 12.5325 9.50277 12.2948C9.50277 12.0571 9.30984 11.8641 9.07211 11.8641ZM9.0765 13.2671C8.26053 13.2769 7.45264 14.1731 6.4112 15.9269H11.7901C10.717 14.1338 9.89248 13.2572 9.0765 13.2671Z" fill="#FF8A00"/>
</g>
</svg>
