<svg width="30" height="30" viewBox="0 0 30 30" fill="none" xmlns="http://www.w3.org/2000/svg">
<path fill-rule="evenodd" clip-rule="evenodd" d="M22.0297 24.7197C22.4538 19.0442 21.6113 14.8943 15.4056 14.8945C9.34782 14.8946 8.55095 19.5288 9.01177 24.7316L22.0297 24.7197Z" fill="#1F458A"/>
<path fill-rule="evenodd" clip-rule="evenodd" d="M23.1755 12.8684C20.7355 12.8589 19.7071 12.5622 18.9444 13.9652C22.376 15.3368 23.1598 17.9982 23.5019 22.7101L28.9953 22.6327C29.3142 17.7381 28.5753 12.8892 23.1755 12.8683V12.8684Z" fill="#1F458A"/>
<path fill-rule="evenodd" clip-rule="evenodd" d="M7.53378 22.6428C7.73358 20.3472 7.77281 18.9557 8.67074 17.108C9.45811 15.4879 10.6053 14.5557 12.0956 13.9626C11.303 12.5243 9.98667 12.8732 7.63666 12.8732C2.06767 12.8732 1.85023 18.6363 2.04381 22.7045L7.53378 22.6428Z" fill="#1F458A"/>
<path fill-rule="evenodd" clip-rule="evenodd" d="M12.2342 11.071C12.9454 14.9009 19.2793 14.326 18.8517 9.92651C18.435 5.63953 11.3514 6.31744 12.2342 11.071Z" fill="#1F458A"/>
<path fill-rule="evenodd" clip-rule="evenodd" d="M11.7189 7.41435C10.7898 3.40821 4.53551 4.71372 5.25139 8.9372C5.53355 10.6017 7.05251 11.9975 9.24777 11.619C11.5971 11.214 9.91719 10.598 11.7189 7.41435Z" fill="#1F458A"/>
<path fill-rule="evenodd" clip-rule="evenodd" d="M19.3199 7.4146C19.8096 8.2783 20.1081 8.72168 20.2322 9.93327C20.5496 13.0321 25.2958 11.8387 25.789 8.9371C26.5089 4.70205 20.2264 3.4256 19.3199 7.41465V7.4146Z" fill="#1F458A"/>
</svg>
