<svg width="18" height="17" viewBox="0 0 18 17" fill="none" xmlns="http://www.w3.org/2000/svg">
<g id="ic:twotone-whatsapp">
<path id="Vector" d="M13.8472 3.37567C13.2169 2.73899 12.4661 2.23419 11.6387 1.8907C10.8112 1.54721 9.92369 1.37192 9.02779 1.37504C5.27404 1.37504 2.21467 4.43442 2.21467 8.18817C2.21467 9.39129 2.53092 10.56 3.12217 11.5913L2.15967 15.125L5.76904 14.1763C6.76592 14.7194 7.88654 15.0082 9.02779 15.0082C12.7815 15.0082 15.8409 11.9488 15.8409 8.19504C15.8409 6.37317 15.1328 4.66129 13.8472 3.37567ZM9.02779 13.8532C8.01029 13.8532 7.01342 13.5782 6.14029 13.0625L5.93404 12.9388L3.78904 13.5025L4.35967 11.4125L4.22217 11.1994C3.65687 10.2967 3.3567 9.25327 3.35592 8.18817C3.35592 5.06692 5.89967 2.52317 9.02092 2.52317C10.5334 2.52317 11.9565 3.11442 13.0222 4.18692C13.5498 4.71214 13.968 5.33687 14.2524 6.0249C14.5368 6.71292 14.6818 7.45055 14.679 8.19504C14.6928 11.3163 12.149 13.8532 9.02779 13.8532ZM12.1353 9.61817C11.9634 9.53567 11.1247 9.12317 10.9734 9.06129C10.8153 9.00629 10.7053 8.97879 10.5884 9.14379C10.4715 9.31567 10.1484 9.70067 10.0522 9.81067C9.95592 9.92754 9.85279 9.94129 9.68092 9.85192C9.50904 9.76942 8.95904 9.58379 8.31279 9.00629C7.80404 8.55254 7.46717 7.99567 7.36404 7.82379C7.26779 7.65192 7.35029 7.56254 7.43967 7.47317C7.51529 7.39754 7.61154 7.27379 7.69404 7.17754C7.77654 7.08129 7.81092 7.00567 7.86592 6.89567C7.92092 6.77879 7.89342 6.68254 7.85217 6.60004C7.81092 6.51754 7.46717 5.67879 7.32967 5.33504C7.19217 5.00504 7.04779 5.04629 6.94467 5.03942H6.61467C6.49779 5.03942 6.31904 5.08067 6.16092 5.25254C6.00967 5.42442 5.56967 5.83692 5.56967 6.67567C5.56967 7.51442 6.18154 8.32567 6.26404 8.43567C6.34654 8.55254 7.46717 10.2713 9.17217 11.0069C9.57779 11.1857 9.89404 11.2888 10.1415 11.3644C10.5472 11.495 10.9184 11.4744 11.214 11.4332C11.544 11.385 12.2247 11.0207 12.3622 10.6219C12.5065 10.2232 12.5065 9.88629 12.4584 9.81067C12.4103 9.73504 12.3072 9.70067 12.1353 9.61817Z" fill="#4A17CB"/>
</g>
</svg>
