<svg width="19" height="18" viewBox="0 0 19 18" fill="none" xmlns="http://www.w3.org/2000/svg">
<g id="fluent:info-32-regular">
<path id="Vector" d="M9.64062 7.1875C9.78981 7.1875 9.93288 7.24676 10.0384 7.35225C10.1439 7.45774 10.2031 7.60082 10.2031 7.75V12.8125C10.2031 12.9617 10.1439 13.1048 10.0384 13.2102C9.93288 13.3157 9.78981 13.375 9.64062 13.375C9.49144 13.375 9.34837 13.3157 9.24288 13.2102C9.13739 13.1048 9.07812 12.9617 9.07812 12.8125V7.75C9.07812 7.60082 9.13739 7.45774 9.24288 7.35225C9.34837 7.24676 9.49144 7.1875 9.64062 7.1875ZM9.64062 6.0625C9.8644 6.0625 10.079 5.97361 10.2372 5.81537C10.3955 5.65714 10.4844 5.44253 10.4844 5.21875C10.4844 4.99497 10.3955 4.78036 10.2372 4.62213C10.079 4.46389 9.8644 4.375 9.64062 4.375C9.41685 4.375 9.20224 4.46389 9.044 4.62213C8.88577 4.78036 8.79688 4.99497 8.79688 5.21875C8.79688 5.44253 8.88577 5.65714 9.044 5.81537C9.20224 5.97361 9.41685 6.0625 9.64062 6.0625ZM1.76562 8.875C1.76562 4.52575 5.29138 1 9.64062 1C13.9899 1 17.5156 4.52575 17.5156 8.875C17.5156 13.2242 13.9899 16.75 9.64062 16.75C5.29138 16.75 1.76562 13.2242 1.76562 8.875ZM9.64062 2.125C5.91294 2.125 2.89062 5.14731 2.89062 8.875C2.89062 12.6027 5.91294 15.625 9.64062 15.625C13.3683 15.625 16.3906 12.6027 16.3906 8.875C16.3906 5.14731 13.3683 2.125 9.64062 2.125Z" fill="#979797"/>
</g>
</svg>
