<svg width="18" height="17" viewBox="0 0 18 17" fill="none" xmlns="http://www.w3.org/2000/svg">
<g id="solar:lock-linear">
<g id="Group">
<path id="Vector" d="M2.12695 11.5C2.12695 9.55575 2.12695 8.58294 2.73127 7.97931C3.33489 7.375 4.3077 7.375 6.25195 7.375H11.752C13.6962 7.375 14.669 7.375 15.2726 7.97931C15.877 8.58294 15.877 9.55575 15.877 11.5C15.877 13.4443 15.877 14.4171 15.2726 15.0207C14.669 15.625 13.6962 15.625 11.752 15.625H6.25195C4.3077 15.625 3.33489 15.625 2.73127 15.0207C2.12695 14.4171 2.12695 13.4443 2.12695 11.5Z" stroke="#4A17CB" stroke-width="1.125"/>
<path id="Vector_2" d="M4.875 7.37549V6.00049C4.875 4.90647 5.3096 3.85726 6.08318 3.08367C6.85677 2.31009 7.90598 1.87549 9 1.87549C10.094 1.87549 11.1432 2.31009 11.9168 3.08367C12.6904 3.85726 13.125 4.90647 13.125 6.00049V7.37549" stroke="#4A17CB" stroke-width="1.125" stroke-linecap="round"/>
</g>
</g>
</svg>
