<svg width="18" height="17" viewBox="0 0 18 17" fill="none" xmlns="http://www.w3.org/2000/svg">
<g id="solar:lock-linear">
<g id="Group">
<path id="Vector" d="M2.12695 11C2.12695 9.05575 2.12695 8.08294 2.73127 7.47931C3.33489 6.875 4.3077 6.875 6.25195 6.875H11.752C13.6962 6.875 14.669 6.875 15.2726 7.47931C15.877 8.08294 15.877 9.05575 15.877 11C15.877 12.9443 15.877 13.9171 15.2726 14.5207C14.669 15.125 13.6962 15.125 11.752 15.125H6.25195C4.3077 15.125 3.33489 15.125 2.73127 14.5207C2.12695 13.9171 2.12695 12.9443 2.12695 11Z" stroke="#4A17CB" stroke-width="1.125"/>
<path id="Vector_2" d="M4.875 6.87549V5.50049C4.875 4.40647 5.3096 3.35726 6.08318 2.58367C6.85677 1.81009 7.90598 1.37549 9 1.37549C10.094 1.37549 11.1432 1.81009 11.9168 2.58367C12.6904 3.35726 13.125 4.40647 13.125 5.50049V6.87549" stroke="#4A17CB" stroke-width="1.125" stroke-linecap="round"/>
</g>
<path id="Vector_3" d="M12.0077 8.75441C11.967 8.71341 11.9187 8.68086 11.8653 8.65865C11.812 8.63644 11.7548 8.625 11.6971 8.625C11.6393 8.625 11.5822 8.63644 11.5288 8.65865C11.4755 8.68086 11.4271 8.71341 11.3865 8.75441L8.12709 12.0182L6.75772 10.6444C6.71549 10.6036 6.66564 10.5715 6.61101 10.55C6.55639 10.5285 6.49806 10.5179 6.43936 10.519C6.38065 10.52 6.32272 10.5325 6.26888 10.5559C6.21503 10.5793 6.16632 10.6131 6.12553 10.6553C6.08474 10.6976 6.05266 10.7474 6.03114 10.8021C6.00961 10.8567 5.99905 10.915 6.00007 10.9737C6.00108 11.0324 6.01365 11.0903 6.03705 11.1442C6.06046 11.198 6.09424 11.2467 6.13647 11.2875L7.81647 12.9675C7.85714 13.0085 7.90553 13.0411 7.95884 13.0633C8.01215 13.0855 8.06934 13.0969 8.12709 13.0969C8.18485 13.0969 8.24203 13.0855 8.29534 13.0633C8.34866 13.0411 8.39704 13.0085 8.43772 12.9675L12.0077 9.39754C12.0521 9.35657 12.0876 9.30685 12.1118 9.2515C12.136 9.19616 12.1486 9.13639 12.1486 9.07597C12.1486 9.01555 12.136 8.95579 12.1118 8.90045C12.0876 8.8451 12.0521 8.79538 12.0077 8.75441Z" fill="#4A17CB"/>
</g>
</svg>
