<svg width="14" height="14" viewBox="0 0 14 14" fill="none" xmlns="http://www.w3.org/2000/svg">
<g id="logos:whatsapp-icon" clip-path="url(#clip0_13340_44450)">
<path id="Vector" d="M0.787715 6.91867C0.787398 8.06179 1.08609 9.17797 1.65404 10.1618L0.733398 13.5232L4.17337 12.6212C5.12482 13.1392 6.19085 13.4106 7.27415 13.4106H7.277C10.8532 13.4106 13.7643 10.5006 13.7658 6.92378C13.7665 5.19056 13.0921 3.56075 11.8669 2.33457C10.6419 1.1085 9.01264 0.43292 7.27673 0.432129C3.70013 0.432129 0.789244 3.34201 0.787768 6.91867" fill="url(#paint0_linear_13340_44450)"/>
<path id="Vector_2" d="M0.556426 6.91647C0.556057 8.10072 0.865449 9.25682 1.45365 10.2759L0.5 13.7578L4.06331 12.8235C5.04512 13.3588 6.15054 13.641 7.27537 13.6414H7.27827C10.9827 13.6414 13.9984 10.6267 14 6.92185C14.0006 5.12635 13.302 3.43795 12.033 2.16784C10.7638 0.897894 9.07635 0.198004 7.27827 0.197266C3.57315 0.197266 0.557902 3.21156 0.556426 6.91647ZM2.67851 10.1004L2.54546 9.88916C1.98616 8.99985 1.69095 7.97216 1.69137 6.91689C1.69254 3.83747 4.19868 1.33211 7.28038 1.33211C8.77276 1.33274 10.1753 1.91451 11.2302 2.97004C12.285 4.02568 12.8655 5.42894 12.8651 6.92143C12.8637 10.0008 10.3575 12.5065 7.27827 12.5065H7.27605C6.27341 12.506 5.29007 12.2367 4.43251 11.7279L4.22843 11.6069L2.11388 12.1613L2.67851 10.1004Z" fill="url(#paint1_linear_13340_44450)"/>
<path id="Vector_3" d="M5.59779 4.10758C5.47197 3.82793 5.33955 3.82229 5.2199 3.81738C5.12192 3.81317 5.00991 3.81348 4.89801 3.81348C4.786 3.81348 4.60401 3.85562 4.45019 4.02358C4.2962 4.19169 3.8623 4.59796 3.8623 5.42425C3.8623 6.2506 4.46416 7.04916 4.54806 7.16132C4.63207 7.27328 5.70996 9.02322 7.41708 9.69642C8.83584 10.2559 9.12456 10.1446 9.43248 10.1166C9.74045 10.0886 10.4262 9.7104 10.5661 9.31821C10.7061 8.92608 10.7061 8.58995 10.6641 8.51971C10.6222 8.44973 10.5102 8.4077 10.3422 8.32375C10.1742 8.23974 9.34847 7.83342 9.19454 7.77737C9.04056 7.72136 8.9286 7.69341 8.81659 7.86158C8.70459 8.02949 8.38296 8.4077 8.28493 8.51971C8.187 8.63198 8.08896 8.64595 7.92106 8.56195C7.75299 8.47768 7.2121 8.30054 6.57037 7.72843C6.07108 7.28325 5.73401 6.73349 5.63603 6.56532C5.53804 6.39741 5.62553 6.30639 5.70975 6.2227C5.78521 6.14745 5.87776 6.02659 5.96182 5.92855C6.04556 5.83047 6.07351 5.76049 6.12951 5.64848C6.18557 5.53637 6.15752 5.43828 6.11559 5.35427C6.07351 5.27027 5.74714 4.43965 5.59779 4.10758Z" fill="white"/>
</g>
<defs>
<linearGradient id="paint0_linear_13340_44450" x1="652.354" y1="1309.54" x2="652.354" y2="0.432129" gradientUnits="userSpaceOnUse">
<stop stop-color="#1FAF38"/>
<stop offset="1" stop-color="#60D669"/>
</linearGradient>
<linearGradient id="paint1_linear_13340_44450" x1="675.5" y1="1356.25" x2="675.5" y2="0.197266" gradientUnits="userSpaceOnUse">
<stop stop-color="#F9F9F9"/>
<stop offset="1" stop-color="white"/>
</linearGradient>
<clipPath id="clip0_13340_44450">
<rect width="13.5" height="13.6055" fill="white" transform="translate(0.5 0.197266)"/>
</clipPath>
</defs>
</svg>
