<svg width="23" height="23" viewBox="0 0 23 23" fill="none" xmlns="http://www.w3.org/2000/svg">
<path d="M10.8838 22.1446L11.3564 21.3459L10.2316 20.6797L9.75811 21.4784L10.8838 22.1446ZM7.39074 21.3459L7.86334 22.1446L8.98817 21.4784L8.51644 20.6797L7.39074 21.3459ZM9.75811 21.4784C9.71736 21.5436 9.66068 21.5974 9.59341 21.6347C9.52614 21.672 9.45049 21.6916 9.37358 21.6916C9.29666 21.6916 9.22101 21.672 9.15374 21.6347C9.08648 21.5974 9.0298 21.5436 8.98904 21.4784L7.86334 22.1446C8.53737 23.2842 10.2089 23.2842 10.8838 22.1446L9.75898 21.4784H9.75811ZM8.06564 5.55989H10.6815V4.25195H8.06564V5.55989ZM17.4392 12.3176V13.1895H18.7472V12.3176H17.4392ZM1.30794 13.1895V12.3176H0V13.1895H1.30794ZM0 13.1895C0 14.1967 -4.2228e-08 14.984 0.043598 15.6197C0.087196 16.2606 0.177008 16.7942 0.381919 17.2878L1.59046 16.7873C1.46228 16.4803 1.38729 16.1054 1.34805 15.5308C1.30794 14.95 1.30794 14.2141 1.30794 13.1895H0ZM5.71396 19.0683C4.61878 19.0491 4.04503 18.9794 3.59509 18.7928L3.09546 20.0013C3.79739 20.2925 4.5961 20.3579 5.69129 20.3771L5.71396 19.0683ZM0.381919 17.2878C0.633885 17.8961 1.00321 18.4488 1.4688 18.9144C1.93439 19.38 2.48713 19.7493 3.09546 20.0013L3.59509 18.7928C2.6871 18.4167 1.96657 17.6953 1.59046 16.7873L0.381919 17.2878ZM17.4392 13.1895C17.4392 14.2141 17.4392 14.95 17.3991 15.5308C17.3599 16.1054 17.2849 16.4803 17.1576 16.7873L18.3652 17.2878C18.5701 16.7942 18.66 16.2606 18.7044 15.6197C18.748 14.984 18.7472 14.1967 18.7472 13.1895H17.4392ZM13.0559 20.3754C14.151 20.3571 14.9498 20.2925 15.6517 20.0013L15.1512 18.7928C14.7021 18.9794 14.1284 19.0491 13.0341 19.0683L13.0559 20.3762V20.3754ZM17.1576 16.7873C16.7815 17.6953 16.0601 18.4167 15.1521 18.7928L15.6517 20.0013C16.26 19.7493 16.8128 19.38 17.2784 18.9144C17.7439 18.4488 18.1133 17.8961 18.3652 17.2878L17.1576 16.7873ZM10.6815 5.55989C12.1211 5.55989 13.1553 5.55989 13.9618 5.6375C14.7588 5.71336 15.2654 5.8581 15.67 6.10574L16.3528 4.9905C15.7084 4.59638 14.9777 4.42024 14.0857 4.33479C13.2032 4.25108 12.0958 4.25195 10.6815 4.25195V5.55989ZM18.7472 12.3176C18.7472 10.9033 18.7472 9.79675 18.6634 8.91346C18.5789 8.02144 18.4027 7.28986 18.0086 6.64636L16.8925 7.3291C17.141 7.73369 17.2857 8.2403 17.3616 9.03815C17.4383 9.84384 17.4392 10.878 17.4392 12.3176H18.7472ZM15.6691 6.10574C16.168 6.41119 16.5876 6.8304 16.8934 7.3291L18.0086 6.64636C17.5951 5.97144 17.0277 5.40401 16.3528 4.9905L15.67 6.10661L15.6691 6.10574ZM8.06564 4.25195C6.65132 4.25195 5.5448 4.25195 4.6615 4.33479C3.76949 4.42024 3.03791 4.59638 2.3944 4.9905L3.07715 6.10661C3.48174 5.85811 3.98835 5.71336 4.78619 5.6375C5.59188 5.56077 6.62603 5.55989 8.06564 5.55989V4.25195ZM1.30794 12.3176C1.30794 10.878 1.30794 9.84384 1.38555 9.03727C1.46141 8.2403 1.60615 7.73369 1.85379 7.3291L0.738551 6.64723C0.344424 7.29074 0.168288 8.02144 0.0828363 8.91346C2.59865e-08 9.79762 0 10.9033 0 12.3176H1.30794ZM2.3944 4.9905C1.71949 5.40401 1.15206 5.97231 0.738551 6.64723L1.85466 7.3291C2.15997 6.8306 2.57887 6.4114 3.07715 6.10574L2.3944 4.9905ZM8.51557 20.6797C8.33943 20.3806 8.18422 20.1164 8.0325 19.9089C7.87645 19.6813 7.67373 19.4896 7.43782 19.3465L6.78037 20.4774C6.82135 20.5018 6.87803 20.5454 6.97569 20.6797C7.08119 20.8244 7.20065 21.025 7.39074 21.3459L8.51557 20.6797ZM5.69129 20.3754C6.07495 20.3824 6.31648 20.3876 6.50134 20.4076C6.67399 20.4268 6.74113 20.4547 6.78037 20.4774L7.43782 19.3465C7.19368 19.2112 6.92343 19.1297 6.64521 19.1075C6.38537 19.0788 6.07321 19.0744 5.71396 19.0683L5.69129 20.3771V20.3754ZM11.3564 21.3459C11.5465 21.0259 11.666 20.8244 11.7715 20.6797C11.8691 20.5454 11.9258 20.5018 11.9668 20.4774L11.3093 19.3465C11.0565 19.4947 10.8734 19.6909 10.7147 19.9089C10.5638 20.1164 10.4077 20.3797 10.2307 20.6797L11.3564 21.3459ZM13.0341 19.0683C12.6748 19.0744 12.3618 19.0788 12.1019 19.1075C11.8308 19.1381 11.5648 19.1982 11.3093 19.3465L11.9668 20.4774C12.006 20.4547 12.0732 20.4268 12.2458 20.4076C12.4307 20.3876 12.6731 20.3815 13.0567 20.3754L13.0341 19.0674V19.0683Z" fill="white"/>
<path d="M22.8371 2.0623C22.8716 1.78832 22.6774 1.53826 22.4035 1.50378L17.9387 0.941926C17.6647 0.907448 17.4146 1.1016 17.3802 1.37559C17.3457 1.64957 17.5398 1.89962 17.8138 1.9341L21.7825 2.43353L21.2831 6.40223C21.2486 6.67621 21.4428 6.92627 21.7168 6.96074C21.9907 6.99522 22.2408 6.80107 22.2753 6.52709L22.8371 2.0623ZM16.6582 7.04532L22.6477 2.3948L22.0344 1.60494L16.0449 6.25546L16.6582 7.04532Z" fill="white"/>
<path d="M5.88281 12.7539H5.89066M9.36281 12.7539H9.37066M12.8507 12.7539H12.8585" stroke="white" stroke-width="2" stroke-linecap="round" stroke-linejoin="round"/>
</svg>
