<svg width="24" height="25" viewBox="0 0 24 25" fill="none" xmlns="http://www.w3.org/2000/svg">
<g clip-path="url(#clip0_8619_14821)">
<path d="M11.0008 20.7148H11.0006C10.6852 20.7149 10.3815 20.5958 10.1502 20.3814C10.095 20.3302 10.0448 20.2744 10.0002 20.2148H14.0013C13.9752 20.2497 13.9472 20.2832 13.9174 20.3154C13.7061 20.5433 13.4176 20.6841 13.1084 20.7108L12.9883 20.7148H11.0008ZM18.2508 13.2288V13.4059L18.33 13.5643L20.152 17.2083L20.152 17.2083C20.1773 17.2589 20.19 17.3149 20.1889 17.3714C20.1879 17.428 20.1731 17.4834 20.1459 17.533C20.1188 17.5826 20.08 17.6249 20.0329 17.6563C19.9897 17.685 19.9408 17.7037 19.8896 17.7112L19.8193 17.7148H4.16283H4.1626C4.10602 17.7149 4.05028 17.7012 4.00015 17.6749C3.95002 17.6487 3.907 17.6107 3.87478 17.5641C3.84256 17.5176 3.8221 17.464 3.81515 17.4078C3.80879 17.3565 3.81391 17.3044 3.83007 17.2553L3.85816 17.1912L5.67165 13.5643L5.75083 13.4059V13.2288V9.46484C5.75083 7.80724 6.40931 6.21753 7.58141 5.04543C8.75351 3.87332 10.3432 3.21484 12.0008 3.21484C13.6214 3.21482 15.1785 3.84421 16.3439 4.97027C17.5077 6.09484 18.1899 7.62694 18.247 9.24415L18.2508 9.4711V13.2288Z" stroke="#979797" stroke-width="1.5"/>
</g>
<defs>
<clipPath id="clip0_8619_14821">
<rect width="24" height="24" fill="white" transform="translate(0 0.464844)"/>
</clipPath>
</defs>
</svg>
