<svg width="27" height="28" viewBox="0 0 27 28" fill="none" xmlns="http://www.w3.org/2000/svg">
<g id="ph:google-podcasts-logo">
<path id="Vector" d="M14.3438 2.1875V5.5625C14.3438 5.78628 14.2549 6.00089 14.0966 6.15912C13.9384 6.31736 13.7238 6.40625 13.5 6.40625C13.2762 6.40625 13.0616 6.31736 12.9034 6.15912C12.7451 6.00089 12.6562 5.78628 12.6562 5.5625V2.1875C12.6562 1.96372 12.7451 1.74911 12.9034 1.59088C13.0616 1.43264 13.2762 1.34375 13.5 1.34375C13.7238 1.34375 13.9384 1.43264 14.0966 1.59088C14.2549 1.74911 14.3438 1.96372 14.3438 2.1875ZM18.5625 6.40625C18.3387 6.40625 18.1241 6.49514 17.9659 6.65338C17.8076 6.81161 17.7188 7.02622 17.7188 7.25V10.625C17.7188 10.8488 17.8076 11.0634 17.9659 11.2216C18.1241 11.3799 18.3387 11.4688 18.5625 11.4688C18.7863 11.4688 19.0009 11.3799 19.1591 11.2216C19.3174 11.0634 19.4062 10.8488 19.4062 10.625V7.25C19.4062 7.02622 19.3174 6.81161 19.1591 6.65338C19.0009 6.49514 18.7863 6.40625 18.5625 6.40625ZM13.5 21.5938C13.2762 21.5938 13.0616 21.6826 12.9034 21.8409C12.7451 21.9991 12.6562 22.2137 12.6562 22.4375V25.8125C12.6562 26.0363 12.7451 26.2509 12.9034 26.4091C13.0616 26.5674 13.2762 26.6562 13.5 26.6562C13.7238 26.6562 13.9384 26.5674 14.0966 26.4091C14.2549 26.2509 14.3438 26.0363 14.3438 25.8125V22.4375C14.3438 22.2137 14.2549 21.9991 14.0966 21.8409C13.9384 21.6826 13.7238 21.5938 13.5 21.5938ZM13.5 8.9375C13.2762 8.9375 13.0616 9.02639 12.9034 9.18463C12.7451 9.34286 12.6562 9.55747 12.6562 9.78125V18.2188C12.6562 18.4425 12.7451 18.6571 12.9034 18.8154C13.0616 18.9736 13.2762 19.0625 13.5 19.0625C13.7238 19.0625 13.9384 18.9736 14.0966 18.8154C14.2549 18.6571 14.3438 18.4425 14.3438 18.2188V9.78125C14.3438 9.55747 14.2549 9.34286 14.0966 9.18463C13.9384 9.02639 13.7238 8.9375 13.5 8.9375ZM8.4375 6.40625C8.21372 6.40625 7.99911 6.49514 7.84088 6.65338C7.68264 6.81161 7.59375 7.02622 7.59375 7.25V13.1562C7.59375 13.38 7.68264 13.5946 7.84088 13.7529C7.99911 13.9111 8.21372 14 8.4375 14C8.66128 14 8.87589 13.9111 9.03412 13.7529C9.19236 13.5946 9.28125 13.38 9.28125 13.1562V7.25C9.28125 7.02622 9.19236 6.81161 9.03412 6.65338C8.87589 6.49514 8.66128 6.40625 8.4375 6.40625ZM18.5625 14C18.3387 14 18.1241 14.0889 17.9659 14.2471C17.8076 14.4054 17.7188 14.62 17.7188 14.8438V20.75C17.7188 20.9738 17.8076 21.1884 17.9659 21.3466C18.1241 21.5049 18.3387 21.5938 18.5625 21.5938C18.7863 21.5938 19.0009 21.5049 19.1591 21.3466C19.3174 21.1884 19.4062 20.9738 19.4062 20.75V14.8438C19.4062 14.62 19.3174 14.4054 19.1591 14.2471C19.0009 14.0889 18.7863 14 18.5625 14ZM3.375 11.4688C3.15122 11.4688 2.93661 11.5576 2.77838 11.7159C2.62014 11.8741 2.53125 12.0887 2.53125 12.3125V15.6875C2.53125 15.9113 2.62014 16.1259 2.77838 16.2841C2.93661 16.4424 3.15122 16.5312 3.375 16.5312C3.59878 16.5312 3.81339 16.4424 3.97162 16.2841C4.12986 16.1259 4.21875 15.9113 4.21875 15.6875V12.3125C4.21875 12.0887 4.12986 11.8741 3.97162 11.7159C3.81339 11.5576 3.59878 11.4688 3.375 11.4688ZM8.4375 16.5312C8.21372 16.5312 7.99911 16.6201 7.84088 16.7784C7.68264 16.9366 7.59375 17.1512 7.59375 17.375V20.75C7.59375 20.9738 7.68264 21.1884 7.84088 21.3466C7.99911 21.5049 8.21372 21.5938 8.4375 21.5938C8.66128 21.5938 8.87589 21.5049 9.03412 21.3466C9.19236 21.1884 9.28125 20.9738 9.28125 20.75V17.375C9.28125 17.1512 9.19236 16.9366 9.03412 16.7784C8.87589 16.6201 8.66128 16.5312 8.4375 16.5312ZM23.625 11.4688C23.4012 11.4688 23.1866 11.5576 23.0284 11.7159C22.8701 11.8741 22.7812 12.0887 22.7812 12.3125V15.6875C22.7812 15.9113 22.8701 16.1259 23.0284 16.2841C23.1866 16.4424 23.4012 16.5312 23.625 16.5312C23.8488 16.5312 24.0634 16.4424 24.2216 16.2841C24.3799 16.1259 24.4688 15.9113 24.4688 15.6875V12.3125C24.4688 12.0887 24.3799 11.8741 24.2216 11.7159C24.0634 11.5576 23.8488 11.4688 23.625 11.4688Z" fill="#954DE1"/>
</g>
</svg>
