<svg width="37" height="37" viewBox="0 0 37 37" fill="none" xmlns="http://www.w3.org/2000/svg">
<g id="ph:seal-check-fill">
<path id="Vector" d="M32.5116 14.9591C31.9814 14.405 31.433 13.8341 31.2263 13.332C31.035 12.8722 31.0237 12.11 31.0125 11.3717C30.9914 9.99922 30.9689 8.44391 29.8875 7.3625C28.8061 6.28109 27.2508 6.25859 25.8783 6.2375C25.14 6.22625 24.3778 6.215 23.918 6.02375C23.4173 5.81703 22.845 5.26859 22.2909 4.73844C21.3206 3.80609 20.2181 2.75 18.75 2.75C17.2819 2.75 16.1808 3.80609 15.2091 4.73844C14.655 5.26859 14.0841 5.81703 13.582 6.02375C13.125 6.215 12.36 6.22625 11.6217 6.2375C10.2492 6.25859 8.69391 6.28109 7.6125 7.3625C6.53109 8.44391 6.51562 9.99922 6.4875 11.3717C6.47625 12.11 6.465 12.8722 6.27375 13.332C6.06703 13.8327 5.51859 14.405 4.98844 14.9591C4.05609 15.9294 3 17.0319 3 18.5C3 19.9681 4.05609 21.0692 4.98844 22.0409C5.51859 22.595 6.06703 23.1659 6.27375 23.668C6.465 24.1278 6.47625 24.89 6.4875 25.6283C6.50859 27.0008 6.53109 28.5561 7.6125 29.6375C8.69391 30.7189 10.2492 30.7414 11.6217 30.7625C12.36 30.7737 13.1222 30.785 13.582 30.9763C14.0827 31.183 14.655 31.7314 15.2091 32.2616C16.1794 33.1939 17.2819 34.25 18.75 34.25C20.2181 34.25 21.3192 33.1939 22.2909 32.2616C22.845 31.7314 23.4159 31.183 23.918 30.9763C24.3778 30.785 25.14 30.7737 25.8783 30.7625C27.2508 30.7414 28.8061 30.7189 29.8875 29.6375C30.9689 28.5561 30.9914 27.0008 31.0125 25.6283C31.0237 24.89 31.035 24.1278 31.2263 23.668C31.433 23.1673 31.9814 22.595 32.5116 22.0409C33.4439 21.0706 34.5 19.9681 34.5 18.5C34.5 17.0319 33.4439 15.9308 32.5116 14.9591ZM25.1709 15.9209L17.2959 23.7959C17.1915 23.9005 17.0674 23.9835 16.9308 24.0401C16.7942 24.0967 16.6478 24.1259 16.5 24.1259C16.3522 24.1259 16.2058 24.0967 16.0692 24.0401C15.9326 23.9835 15.8085 23.9005 15.7041 23.7959L12.3291 20.4209C12.2245 20.3164 12.1416 20.1923 12.0851 20.0558C12.0285 19.9192 11.9994 19.7728 11.9994 19.625C11.9994 19.4772 12.0285 19.3308 12.0851 19.1942C12.1416 19.0577 12.2245 18.9336 12.3291 18.8291C12.5402 18.618 12.8265 18.4994 13.125 18.4994C13.2728 18.4994 13.4192 18.5285 13.5558 18.5851C13.6923 18.6416 13.8164 18.7245 13.9209 18.8291L16.5 21.4095L23.5791 14.3291C23.6836 14.2245 23.8077 14.1416 23.9442 14.0851C24.0808 14.0285 24.2272 13.9994 24.375 13.9994C24.5228 13.9994 24.6692 14.0285 24.8058 14.0851C24.9423 14.1416 25.0664 14.2245 25.1709 14.3291C25.2755 14.4336 25.3584 14.5577 25.4149 14.6942C25.4715 14.8308 25.5006 14.9772 25.5006 15.125C25.5006 15.2728 25.4715 15.4192 25.4149 15.5558C25.3584 15.6923 25.2755 15.8164 25.1709 15.9209Z" fill="#00C142"/>
</g>
</svg>
