<svg width="25" height="24" viewBox="0 0 25 24" fill="none" xmlns="http://www.w3.org/2000/svg">
<g id="ph:users-three-light">
<path id="Vector" d="M23.0875 13.9505C23.0284 13.9948 22.9612 14.0271 22.8896 14.0454C22.818 14.0638 22.7436 14.0678 22.6705 14.0574C22.5973 14.0469 22.527 14.0222 22.4634 13.9845C22.3998 13.9469 22.3443 13.8971 22.3 13.838C21.8306 13.207 21.2196 12.695 20.5161 12.3433C19.8127 11.9916 19.0365 11.8099 18.25 11.813C18.1008 11.813 17.9577 11.7538 17.8523 11.6483C17.7468 11.5428 17.6875 11.3997 17.6875 11.2505C17.6875 11.1013 17.7468 10.9583 17.8523 10.8528C17.9577 10.7473 18.1008 10.688 18.25 10.688C18.7059 10.6879 19.1526 10.56 19.5394 10.3187C19.9262 10.0775 20.2376 9.73261 20.4382 9.32326C20.6389 8.91391 20.7207 8.4565 20.6744 8.00299C20.6281 7.54947 20.4555 7.11803 20.1763 6.75766C19.8971 6.39729 19.5225 6.12244 19.0949 5.96433C18.6673 5.80622 18.204 5.77118 17.7575 5.8632C17.311 5.95521 16.8992 6.17059 16.569 6.48488C16.2388 6.79916 16.0033 7.19975 15.8894 7.64115C15.8521 7.78561 15.7589 7.90934 15.6304 7.98512C15.5019 8.06089 15.3485 8.08251 15.2041 8.04521C15.0596 8.00792 14.9359 7.91476 14.8601 7.78624C14.7843 7.65772 14.7627 7.50436 14.8 7.3599C14.9414 6.80999 15.2122 6.30184 15.5898 5.87781C15.9674 5.45378 16.4409 5.12615 16.9708 4.92222C17.5007 4.7183 18.0717 4.64399 18.6361 4.70549C19.2006 4.76699 19.7422 4.96252 20.2157 5.27578C20.6893 5.58903 21.0811 6.01095 21.3586 6.50635C21.636 7.00175 21.791 7.55629 21.8106 8.12374C21.8303 8.6912 21.714 9.25513 21.4715 9.76854C21.229 10.2819 20.8673 10.7299 20.4166 11.0752C21.5257 11.4892 22.4921 12.214 23.2 13.163C23.2443 13.2221 23.2766 13.2894 23.2949 13.3609C23.3132 13.4325 23.3173 13.5069 23.3068 13.5801C23.2964 13.6532 23.2717 13.7236 23.234 13.7871C23.1964 13.8507 23.1466 13.9062 23.0875 13.9505ZM17.9866 19.9693C18.0236 20.0332 18.0476 20.1038 18.0573 20.1771C18.0671 20.2503 18.0622 20.3248 18.0432 20.3962C18.0241 20.4676 17.9912 20.5345 17.9462 20.5932C17.9013 20.6518 17.8452 20.701 17.7812 20.738C17.696 20.788 17.5989 20.8142 17.5 20.814C17.4012 20.814 17.3041 20.7881 17.2185 20.7387C17.133 20.6893 17.0619 20.6183 17.0125 20.5327C16.5236 19.7043 15.827 19.0177 14.9917 18.5408C14.1563 18.0638 13.211 17.8129 12.2491 17.8129C11.2871 17.8129 10.3418 18.0638 9.50646 18.5408C8.6711 19.0177 7.97457 19.7043 7.48563 20.5327C7.45046 20.5999 7.40206 20.6593 7.34334 20.7074C7.28462 20.7554 7.21679 20.7911 7.14393 20.8122C7.07107 20.8333 6.99469 20.8395 6.91937 20.8304C6.84406 20.8212 6.77138 20.7969 6.7057 20.759C6.64002 20.721 6.5827 20.6701 6.53719 20.6095C6.49167 20.5488 6.4589 20.4795 6.44085 20.4058C6.4228 20.3321 6.41985 20.2555 6.43216 20.1807C6.44447 20.1058 6.4718 20.0342 6.5125 19.9702C7.27866 18.6538 8.47827 17.6444 9.90625 17.1146C9.12621 16.6081 8.5308 15.863 8.20884 14.9905C7.88687 14.118 7.85562 13.1647 8.11972 12.273C8.38383 11.3812 8.92915 10.5987 9.67434 10.0423C10.4195 9.48578 11.3246 9.18511 12.2547 9.18511C13.1847 9.18511 14.0899 9.48578 14.835 10.0423C15.5802 10.5987 16.1255 11.3812 16.3897 12.273C16.6538 13.1647 16.6225 14.118 16.3005 14.9905C15.9786 15.863 15.3832 16.6081 14.6031 17.1146C16.0271 17.6462 17.2228 18.6551 17.9866 19.9693ZM12.25 16.688C12.8804 16.688 13.4967 16.5011 14.0209 16.1508C14.5451 15.8006 14.9536 15.3028 15.1949 14.7203C15.4361 14.1379 15.4992 13.497 15.3763 12.8787C15.2533 12.2604 14.9497 11.6924 14.5039 11.2466C14.0581 10.8008 13.4902 10.4973 12.8719 10.3743C12.2535 10.2513 11.6126 10.3144 11.0302 10.5557C10.4478 10.7969 9.94994 11.2055 9.59969 11.7296C9.24944 12.2538 9.0625 12.8701 9.0625 13.5005C9.0625 14.3459 9.39832 15.1567 9.9961 15.7544C10.5939 16.3522 11.4046 16.688 12.25 16.688ZM6.8125 11.2505C6.8125 11.1013 6.75324 10.9583 6.64775 10.8528C6.54226 10.7473 6.39918 10.688 6.25 10.688C5.79418 10.6879 5.34753 10.5599 4.96078 10.3187C4.57402 10.0775 4.26266 9.73262 4.06204 9.32332C3.86143 8.91402 3.7796 8.45667 3.82585 8.0032C3.8721 7.54973 4.04458 7.11832 4.32369 6.75795C4.60281 6.39758 4.97738 6.12269 5.40488 5.96451C5.83237 5.80632 6.29565 5.77118 6.74212 5.86306C7.18858 5.95495 7.60034 6.17018 7.93062 6.48432C8.26091 6.79845 8.49649 7.19891 8.61063 7.64021C8.62909 7.71174 8.66147 7.77893 8.7059 7.83795C8.75034 7.89697 8.80596 7.94666 8.8696 7.98418C8.93323 8.0217 9.00364 8.04632 9.07679 8.05663C9.14994 8.06694 9.22441 8.06274 9.29594 8.04428C9.36747 8.02581 9.43466 7.99343 9.49368 7.949C9.55269 7.90456 9.60238 7.84894 9.6399 7.7853C9.67742 7.72167 9.70204 7.65126 9.71235 7.57811C9.72266 7.50496 9.71847 7.43049 9.7 7.35896C9.55861 6.80905 9.28782 6.30091 8.91021 5.87688C8.53261 5.45284 8.05911 5.12521 7.5292 4.92129C6.99929 4.71736 6.42831 4.64305 5.86386 4.70455C5.2994 4.76605 4.75782 4.96158 4.28426 5.27484C3.8107 5.5881 3.41887 6.01001 3.14144 6.50541C2.86401 7.00081 2.70901 7.55535 2.68936 8.12281C2.66971 8.69026 2.78598 9.25419 3.02848 9.7676C3.27098 10.281 3.63268 10.729 4.08344 11.0743C2.97414 11.4885 2.00775 12.2137 1.3 13.163C1.25568 13.2221 1.22343 13.2894 1.2051 13.3609C1.18677 13.4325 1.18271 13.5069 1.19315 13.5801C1.2036 13.6532 1.22835 13.7236 1.26598 13.7871C1.30362 13.8507 1.35341 13.9062 1.4125 13.9505C1.47159 13.9948 1.53884 14.0271 1.6104 14.0454C1.68196 14.0638 1.75642 14.0678 1.82955 14.0574C1.90268 14.0469 1.97303 14.0222 2.03659 13.9845C2.10015 13.9469 2.15568 13.8971 2.2 13.838C2.66941 13.207 3.28044 12.695 3.98388 12.3433C4.68733 11.9916 5.46353 11.8099 6.25 11.813C6.39918 11.813 6.54226 11.7538 6.64775 11.6483C6.75324 11.5428 6.8125 11.3997 6.8125 11.2505Z" fill="#FF2828"/>
</g>
</svg>
