<svg width="19" height="18" viewBox="0 0 19 18" fill="none" xmlns="http://www.w3.org/2000/svg">
<g id="ph:plus-bold">
<path id="Vector" d="M16.7812 9C16.7812 9.22378 16.6924 9.43839 16.5341 9.59662C16.3759 9.75485 16.1613 9.84375 15.9375 9.84375H10.5938V15.1875C10.5938 15.4113 10.5049 15.6259 10.3466 15.7841C10.1884 15.9424 9.97378 16.0312 9.75 16.0312C9.52622 16.0312 9.31161 15.9424 9.15338 15.7841C8.99514 15.6259 8.90625 15.4113 8.90625 15.1875V9.84375H3.5625C3.33872 9.84375 3.12411 9.75485 2.96588 9.59662C2.80764 9.43839 2.71875 9.22378 2.71875 9C2.71875 8.77622 2.80764 8.56161 2.96588 8.40338C3.12411 8.24514 3.33872 8.15625 3.5625 8.15625H8.90625V2.8125C8.90625 2.58872 8.99514 2.37411 9.15338 2.21588C9.31161 2.05764 9.52622 1.96875 9.75 1.96875C9.97378 1.96875 10.1884 2.05764 10.3466 2.21588C10.5049 2.37411 10.5938 2.58872 10.5938 2.8125V8.15625H15.9375C16.1613 8.15625 16.3759 8.24514 16.5341 8.40338C16.6924 8.56161 16.7812 8.77622 16.7812 9Z" fill="black"/>
</g>
</svg>
