<svg width="15" height="14" viewBox="0 0 15 14" fill="none" xmlns="http://www.w3.org/2000/svg">
<g id="ri:user-received-fill">
<path id="Vector" d="M8.625 8.01675V12.375H3C2.99983 11.6881 3.15689 11.0103 3.45917 10.3935C3.76144 9.77675 4.2009 9.23734 4.74387 8.81665C5.28684 8.39595 5.91891 8.10514 6.59165 7.96649C7.26439 7.82784 7.95993 7.84503 8.625 8.01675ZM7.5 7.3125C5.63531 7.3125 4.125 5.80219 4.125 3.9375C4.125 2.07281 5.63531 0.5625 7.5 0.5625C9.36469 0.5625 10.875 2.07281 10.875 3.9375C10.875 5.80219 9.36469 7.3125 7.5 7.3125ZM11.6726 9.5625H13.6897V10.6875H11.6726L12.7014 11.7158L11.9061 12.5117L9.51938 10.125L11.9061 7.73831L12.7014 8.53425L11.6726 9.5625Z" fill="#747474"/>
</g>
</svg>
