<svg width="20" height="17" viewBox="0 0 20 17" fill="none" xmlns="http://www.w3.org/2000/svg">
<g id="solar:dollar-linear" clip-path="url(#clip0_13340_44003)">
<g id="Group">
<path id="Vector" d="M9.83959 16.2475C14.6951 16.2475 18.6313 12.8342 18.6313 8.62375C18.6313 4.41327 14.6951 1 9.83959 1C4.98404 1 1.04785 4.41327 1.04785 8.62375C1.04785 12.8342 4.98404 16.2475 9.83959 16.2475Z" stroke="#4A17CB" stroke-width="0.9"/>
<path id="Vector_2" d="M9.83869 4.0498V13.1983M12.4762 6.71812C12.4762 5.66604 11.2955 4.81218 9.83869 4.81218C8.3819 4.81218 7.20117 5.66604 7.20117 6.71812C7.20117 7.77019 8.3819 8.62406 9.83869 8.62406C11.2955 8.62406 12.4762 9.47792 12.4762 10.53C12.4762 11.5821 11.2955 12.4359 9.83869 12.4359C8.3819 12.4359 7.20117 11.5821 7.20117 10.53" stroke="#4A17CB" stroke-width="0.9" stroke-linecap="round"/>
</g>
</g>
<defs>
<clipPath id="clip0_13340_44003">
<rect width="19.0279" height="16.5" fill="white" transform="translate(0.750977 0.25)"/>
</clipPath>
</defs>
</svg>
