<svg width="27" height="30" viewBox="0 0 27 30" fill="none" xmlns="http://www.w3.org/2000/svg">
<path d="M10.8838 28.5793L11.3564 27.7304L10.2316 27.0223L9.75811 27.8712L10.8838 28.5793ZM7.39074 27.7304L7.86334 28.5793L8.98817 27.8712L8.51644 27.0223L7.39074 27.7304ZM9.75811 27.8712C9.71736 27.9406 9.66068 27.9977 9.59341 28.0374C9.52614 28.077 9.45049 28.0978 9.37358 28.0978C9.29666 28.0978 9.22101 28.077 9.15374 28.0374C9.08648 27.9977 9.0298 27.9406 8.98904 27.8712L7.86334 28.5793C8.53737 29.7905 10.2089 29.7905 10.8838 28.5793L9.75898 27.8712H9.75811ZM8.06564 10.9526H10.6815V9.5625H8.06564V10.9526ZM17.4392 18.1349V19.0616H18.7472V18.1349H17.4392ZM1.30794 19.0616V18.1349H0V19.0616H1.30794ZM0 19.0616C0 20.132 -4.2228e-08 20.9689 0.043598 21.6445C0.087196 22.3256 0.177008 22.8928 0.381919 23.4173L1.59046 22.8854C1.46228 22.5592 1.38729 22.1607 1.34805 21.5499C1.30794 20.9327 1.30794 20.1505 1.30794 19.0616H0ZM5.71396 25.3097C4.61878 25.2893 4.04503 25.2152 3.59509 25.0169L3.09546 26.3013C3.79739 26.6109 4.5961 26.6804 5.69129 26.7008L5.71396 25.3097ZM0.381919 23.4173C0.633885 24.0639 1.00321 24.6513 1.4688 25.1462C1.93439 25.641 2.48713 26.0335 3.09546 26.3013L3.59509 25.0169C2.6871 24.6171 1.96657 23.8504 1.59046 22.8854L0.381919 23.4173ZM17.4392 19.0616C17.4392 20.1505 17.4392 20.9327 17.3991 21.5499C17.3599 22.1607 17.2849 22.5592 17.1576 22.8854L18.3652 23.4173C18.5701 22.8928 18.66 22.3256 18.7044 21.6445C18.748 20.9689 18.7472 20.132 18.7472 19.0616H17.4392ZM13.0559 26.6989C14.151 26.6795 14.9498 26.6109 15.6517 26.3013L15.1512 25.0169C14.7021 25.2152 14.1284 25.2893 13.0341 25.3097L13.0559 26.6998V26.6989ZM17.1576 22.8854C16.7815 23.8504 16.0601 24.6171 15.1521 25.0169L15.6517 26.3013C16.26 26.0335 16.8128 25.641 17.2784 25.1462C17.7439 24.6513 18.1133 24.0639 18.3652 23.4173L17.1576 22.8854ZM10.6815 10.9526C12.1211 10.9526 13.1553 10.9526 13.9618 11.0351C14.7588 11.1157 15.2654 11.2696 15.67 11.5328L16.3528 10.3475C15.7084 9.92856 14.9777 9.74136 14.0857 9.65054C13.2032 9.56157 12.0958 9.5625 10.6815 9.5625V10.9526ZM18.7472 18.1349C18.7472 16.6317 18.7472 15.4557 18.6634 14.5169C18.5789 13.5688 18.4027 12.7913 18.0086 12.1073L16.8925 12.833C17.141 13.263 17.2857 13.8014 17.3616 14.6494C17.4383 15.5057 17.4392 16.6048 17.4392 18.1349H18.7472ZM15.6691 11.5328C16.168 11.8574 16.5876 12.3029 16.8934 12.833L18.0086 12.1073C17.5951 11.39 17.0277 10.7869 16.3528 10.3475L15.67 11.5337L15.6691 11.5328ZM8.06564 9.5625C6.65132 9.5625 5.5448 9.5625 4.6615 9.65054C3.76949 9.74136 3.03791 9.92856 2.3944 10.3475L3.07715 11.5337C3.48174 11.2696 3.98835 11.1157 4.78619 11.0351C5.59188 10.9535 6.62603 10.9526 8.06564 10.9526V9.5625ZM1.30794 18.1349C1.30794 16.6048 1.30794 15.5057 1.38555 14.6485C1.46141 13.8014 1.60615 13.263 1.85379 12.833L0.738551 12.1083C0.344424 12.7922 0.168288 13.5688 0.0828363 14.5169C2.59865e-08 15.4566 0 16.6317 0 18.1349H1.30794ZM2.3944 10.3475C1.71949 10.7869 1.15206 11.3909 0.738551 12.1083L1.85466 12.833C2.15997 12.3032 2.57887 11.8576 3.07715 11.5328L2.3944 10.3475ZM8.51557 27.0223C8.33943 26.7045 8.18422 26.4237 8.0325 26.2031C7.87645 25.9613 7.67373 25.7575 7.43782 25.6054L6.78037 26.8073C6.82135 26.8333 6.87803 26.8796 6.97569 27.0223C7.08119 27.1762 7.20065 27.3893 7.39074 27.7304L8.51557 27.0223ZM5.69129 26.6989C6.07495 26.7063 6.31648 26.7119 6.50134 26.7332C6.67399 26.7536 6.74113 26.7832 6.78037 26.8073L7.43782 25.6054C7.19368 25.4616 6.92343 25.375 6.64521 25.3514C6.38537 25.3208 6.07321 25.3162 5.71396 25.3097L5.69129 26.7008V26.6989ZM11.3564 27.7304C11.5465 27.3903 11.666 27.1762 11.7715 27.0223C11.8691 26.8796 11.9258 26.8333 11.9668 26.8073L11.3093 25.6054C11.0565 25.7629 10.8734 25.9714 10.7147 26.2031C10.5638 26.4237 10.4077 26.7035 10.2307 27.0223L11.3564 27.7304ZM13.0341 25.3097C12.6748 25.3162 12.3618 25.3208 12.1019 25.3514C11.8308 25.3839 11.5648 25.4478 11.3093 25.6054L11.9668 26.8073C12.006 26.7832 12.0732 26.7536 12.2458 26.7332C12.4307 26.7119 12.6731 26.7054 13.0567 26.6989L13.0341 25.3088V25.3097Z" fill="#954DE1"/>
<g clip-path="url(#clip0_8967_39319)">
<path fill-rule="evenodd" clip-rule="evenodd" d="M25.775 2.55578C25.9156 2.69642 25.9946 2.88715 25.9946 3.08603C25.9946 3.2849 25.9156 3.47563 25.775 3.61628L20.1535 9.23778C20.0792 9.31208 19.991 9.37103 19.8939 9.41124C19.7968 9.45146 19.6928 9.47216 19.5877 9.47216C19.4826 9.47216 19.3786 9.45146 19.2815 9.41124C19.1845 9.37103 19.0963 9.31208 19.022 9.23778L16.229 6.44528C16.1573 6.37609 16.1002 6.29333 16.0609 6.20183C16.0216 6.11033 16.0009 6.01191 16 5.91233C15.9992 5.81274 16.0181 5.71398 16.0558 5.62181C16.0936 5.52964 16.1493 5.4459 16.2197 5.37548C16.2901 5.30506 16.3738 5.24937 16.466 5.21166C16.5582 5.17395 16.6569 5.15497 16.7565 5.15584C16.8561 5.1567 16.9545 5.17739 17.046 5.2167C17.1375 5.25601 17.2203 5.31314 17.2895 5.38478L19.5875 7.68278L24.714 2.55578C24.7836 2.48608 24.8663 2.43079 24.9573 2.39307C25.0484 2.35535 25.1459 2.33594 25.2445 2.33594C25.343 2.33594 25.4406 2.35535 25.5316 2.39307C25.6226 2.43079 25.7053 2.48608 25.775 2.55578Z" fill="#954DE1"/>
</g>
<path d="M5.88281 18.5977H5.89066M9.36281 18.5977H9.37066M12.8507 18.5977H12.8585" stroke="#954DE1" stroke-width="2" stroke-linecap="round" stroke-linejoin="round"/>
<defs>
<clipPath id="clip0_8967_39319">
<rect width="12" height="12" fill="white" transform="translate(15)"/>
</clipPath>
</defs>
</svg>
